<mxfile host="Electron" modified="2024-04-03T04:13:54.500Z" agent="Mozilla/5.0 (Windows NT 10.0; Win64; x64) AppleWebKit/537.36 (KHTML, like Gecko) draw.io/23.0.2 Chrome/120.0.6099.109 Electron/28.1.0 Safari/537.36" etag="Br_5DMt_lzZMyrCjPeqU" version="23.0.2" type="device">
  <diagram name="Структурная схема" id="tclKznP_QGb8bVKGlrxj">
    <mxGraphModel dx="1909" dy="1304" grid="1" gridSize="10" guides="1" tooltips="1" connect="1" arrows="1" fold="1" page="1" pageScale="1" pageWidth="1169" pageHeight="827" math="0" shadow="0">
      <root>
        <mxCell id="0" />
        <mxCell id="1" parent="0" />
        <mxCell id="dG1Q1rtih5Ow7F8Cc1fn-1" value="Подсистема&lt;br style=&quot;font-size: 16px;&quot;&gt;управления клиентами" style="rounded=0;whiteSpace=wrap;html=1;fillColor=#f5f5f5;fontColor=#000000;strokeColor=#666666;strokeWidth=2;fontSize=16;fontStyle=1" vertex="1" parent="1">
          <mxGeometry x="350" y="170" width="240" height="60" as="geometry" />
        </mxCell>
        <mxCell id="dG1Q1rtih5Ow7F8Cc1fn-2" value="Подсистема&lt;br style=&quot;font-size: 16px;&quot;&gt;учёта оборудования" style="rounded=0;whiteSpace=wrap;html=1;fillColor=#f5f5f5;fontColor=#000000;strokeColor=#666666;strokeWidth=2;fontSize=16;fontStyle=1" vertex="1" parent="1">
          <mxGeometry x="630" y="170" width="240" height="60" as="geometry" />
        </mxCell>
        <mxCell id="dG1Q1rtih5Ow7F8Cc1fn-3" value="Подсистема&lt;br style=&quot;font-size: 16px;&quot;&gt;управления персоналом" style="rounded=0;whiteSpace=wrap;html=1;fillColor=#f5f5f5;fontColor=#000000;strokeColor=#666666;strokeWidth=2;fontSize=16;fontStyle=1" vertex="1" parent="1">
          <mxGeometry x="910" y="170" width="240" height="60" as="geometry" />
        </mxCell>
        <mxCell id="dG1Q1rtih5Ow7F8Cc1fn-4" value="Подсистема&lt;br style=&quot;font-size: 16px;&quot;&gt;управления объявлениями" style="rounded=0;whiteSpace=wrap;html=1;fillColor=#f5f5f5;fontColor=#000000;strokeColor=#666666;strokeWidth=2;fontSize=16;fontStyle=1" vertex="1" parent="1">
          <mxGeometry x="1190" y="170" width="240" height="60" as="geometry" />
        </mxCell>
        <mxCell id="dG1Q1rtih5Ow7F8Cc1fn-5" value="Информационная система&lt;br style=&quot;font-size: 16px;&quot;&gt;спорткомплекса" style="rounded=0;whiteSpace=wrap;html=1;fontSize=16;fontStyle=1;fillColor=#f5f5f5;fontColor=#000000;strokeColor=#666666;strokeWidth=2;" vertex="1" parent="1">
          <mxGeometry x="40" y="10" width="240" height="60" as="geometry" />
        </mxCell>
        <mxCell id="dG1Q1rtih5Ow7F8Cc1fn-7" value="Подсистема&lt;br style=&quot;font-size: 16px;&quot;&gt;управления финансами" style="rounded=0;whiteSpace=wrap;html=1;fillColor=#f5f5f5;fontColor=#000000;strokeColor=#666666;strokeWidth=2;fontSize=16;fontStyle=1" vertex="1" parent="1">
          <mxGeometry x="1470" y="170" width="240" height="60" as="geometry" />
        </mxCell>
        <mxCell id="dG1Q1rtih5Ow7F8Cc1fn-8" value="" style="endArrow=none;html=1;rounded=0;entryX=0.5;entryY=1;entryDx=0;entryDy=0;strokeWidth=2;strokeColor=#666666;" edge="1" parent="1" target="dG1Q1rtih5Ow7F8Cc1fn-1">
          <mxGeometry width="50" height="50" relative="1" as="geometry">
            <mxPoint x="470" y="590" as="sourcePoint" />
            <mxPoint x="840" y="270" as="targetPoint" />
          </mxGeometry>
        </mxCell>
        <mxCell id="dG1Q1rtih5Ow7F8Cc1fn-9" value="Управление&lt;br&gt;клиентской базой" style="text;html=1;strokeColor=none;fillColor=none;align=right;verticalAlign=middle;whiteSpace=wrap;rounded=0;" vertex="1" parent="1">
          <mxGeometry x="270" y="250" width="160" height="40" as="geometry" />
        </mxCell>
        <mxCell id="dG1Q1rtih5Ow7F8Cc1fn-10" value="" style="endArrow=none;html=1;rounded=0;strokeWidth=2;strokeColor=#666666;" edge="1" parent="1">
          <mxGeometry width="50" height="50" relative="1" as="geometry">
            <mxPoint x="470" y="270" as="sourcePoint" />
            <mxPoint x="440" y="270" as="targetPoint" />
          </mxGeometry>
        </mxCell>
        <mxCell id="dG1Q1rtih5Ow7F8Cc1fn-11" value="Мониторинг&lt;br/&gt;посещаемости клиентов" style="text;html=1;strokeColor=none;fillColor=none;align=right;verticalAlign=middle;whiteSpace=wrap;rounded=0;" vertex="1" parent="1">
          <mxGeometry x="270" y="300" width="160" height="40" as="geometry" />
        </mxCell>
        <mxCell id="dG1Q1rtih5Ow7F8Cc1fn-12" value="" style="endArrow=none;html=1;rounded=0;strokeWidth=2;strokeColor=#666666;" edge="1" parent="1">
          <mxGeometry width="50" height="50" relative="1" as="geometry">
            <mxPoint x="470" y="319.63" as="sourcePoint" />
            <mxPoint x="440" y="319.63" as="targetPoint" />
          </mxGeometry>
        </mxCell>
        <mxCell id="dG1Q1rtih5Ow7F8Cc1fn-13" value="Мониторинг&lt;br/&gt;прогресса клиентов" style="text;html=1;strokeColor=none;fillColor=none;align=right;verticalAlign=middle;whiteSpace=wrap;rounded=0;" vertex="1" parent="1">
          <mxGeometry x="270" y="350" width="160" height="40" as="geometry" />
        </mxCell>
        <mxCell id="dG1Q1rtih5Ow7F8Cc1fn-14" value="" style="endArrow=none;html=1;rounded=0;strokeWidth=2;strokeColor=#666666;" edge="1" parent="1">
          <mxGeometry width="50" height="50" relative="1" as="geometry">
            <mxPoint x="470" y="369.63" as="sourcePoint" />
            <mxPoint x="440" y="369.63" as="targetPoint" />
          </mxGeometry>
        </mxCell>
        <mxCell id="dG1Q1rtih5Ow7F8Cc1fn-15" value="Управление статусами&lt;br&gt;(абонементами) клиентов" style="text;html=1;strokeColor=none;fillColor=none;align=right;verticalAlign=middle;whiteSpace=wrap;rounded=0;" vertex="1" parent="1">
          <mxGeometry x="270" y="400" width="160" height="40" as="geometry" />
        </mxCell>
        <mxCell id="dG1Q1rtih5Ow7F8Cc1fn-16" value="" style="endArrow=none;html=1;rounded=0;strokeWidth=2;strokeColor=#666666;" edge="1" parent="1">
          <mxGeometry width="50" height="50" relative="1" as="geometry">
            <mxPoint x="470" y="419.63" as="sourcePoint" />
            <mxPoint x="440" y="419.63" as="targetPoint" />
          </mxGeometry>
        </mxCell>
        <mxCell id="dG1Q1rtih5Ow7F8Cc1fn-18" value="Отслеживание&lt;br&gt;списка задач клиентов&lt;br&gt;на «Панели управления» для понимания&lt;br&gt;желаний и целей клиентов" style="text;html=1;strokeColor=none;fillColor=none;align=right;verticalAlign=middle;whiteSpace=wrap;rounded=0;" vertex="1" parent="1">
          <mxGeometry x="270" y="450" width="160" height="80" as="geometry" />
        </mxCell>
        <mxCell id="dG1Q1rtih5Ow7F8Cc1fn-19" value="" style="endArrow=none;html=1;rounded=0;strokeWidth=2;strokeColor=#666666;" edge="1" parent="1">
          <mxGeometry width="50" height="50" relative="1" as="geometry">
            <mxPoint x="470" y="489.63" as="sourcePoint" />
            <mxPoint x="440" y="489.63" as="targetPoint" />
          </mxGeometry>
        </mxCell>
        <mxCell id="dG1Q1rtih5Ow7F8Cc1fn-20" value="Отчёты" style="text;html=1;strokeColor=none;fillColor=none;align=right;verticalAlign=middle;whiteSpace=wrap;rounded=0;" vertex="1" parent="1">
          <mxGeometry x="270" y="540" width="160" height="40" as="geometry" />
        </mxCell>
        <mxCell id="dG1Q1rtih5Ow7F8Cc1fn-21" value="" style="endArrow=none;html=1;rounded=0;strokeWidth=2;strokeColor=#666666;" edge="1" parent="1">
          <mxGeometry width="50" height="50" relative="1" as="geometry">
            <mxPoint x="470" y="559.63" as="sourcePoint" />
            <mxPoint x="440" y="559.63" as="targetPoint" />
          </mxGeometry>
        </mxCell>
        <mxCell id="dG1Q1rtih5Ow7F8Cc1fn-22" value="" style="endArrow=none;html=1;rounded=0;entryX=0.5;entryY=1;entryDx=0;entryDy=0;strokeWidth=2;strokeColor=#666666;" edge="1" parent="1" target="dG1Q1rtih5Ow7F8Cc1fn-2">
          <mxGeometry width="50" height="50" relative="1" as="geometry">
            <mxPoint x="750" y="300" as="sourcePoint" />
            <mxPoint x="480" y="240" as="targetPoint" />
          </mxGeometry>
        </mxCell>
        <mxCell id="dG1Q1rtih5Ow7F8Cc1fn-23" value="Управление&lt;br/&gt;базой спортинвентаря" style="text;html=1;strokeColor=none;fillColor=none;align=right;verticalAlign=middle;whiteSpace=wrap;rounded=0;" vertex="1" parent="1">
          <mxGeometry x="550" y="250" width="160" height="40" as="geometry" />
        </mxCell>
        <mxCell id="dG1Q1rtih5Ow7F8Cc1fn-24" value="" style="endArrow=none;html=1;rounded=0;strokeWidth=2;strokeColor=#666666;" edge="1" parent="1">
          <mxGeometry width="50" height="50" relative="1" as="geometry">
            <mxPoint x="750" y="270" as="sourcePoint" />
            <mxPoint x="720" y="270" as="targetPoint" />
          </mxGeometry>
        </mxCell>
        <mxCell id="dG1Q1rtih5Ow7F8Cc1fn-32" value="" style="endArrow=none;html=1;rounded=0;strokeWidth=2;strokeColor=#666666;" edge="1" parent="1">
          <mxGeometry width="50" height="50" relative="1" as="geometry">
            <mxPoint x="1030" y="350" as="sourcePoint" />
            <mxPoint x="1030" y="230" as="targetPoint" />
          </mxGeometry>
        </mxCell>
        <mxCell id="dG1Q1rtih5Ow7F8Cc1fn-33" value="Управление&lt;br&gt;базой сотрудников" style="text;html=1;strokeColor=none;fillColor=none;align=right;verticalAlign=middle;whiteSpace=wrap;rounded=0;" vertex="1" parent="1">
          <mxGeometry x="830" y="250" width="160" height="40" as="geometry" />
        </mxCell>
        <mxCell id="dG1Q1rtih5Ow7F8Cc1fn-34" value="" style="endArrow=none;html=1;rounded=0;strokeWidth=2;strokeColor=#666666;" edge="1" parent="1">
          <mxGeometry width="50" height="50" relative="1" as="geometry">
            <mxPoint x="1030" y="270" as="sourcePoint" />
            <mxPoint x="1000" y="270" as="targetPoint" />
          </mxGeometry>
        </mxCell>
        <mxCell id="dG1Q1rtih5Ow7F8Cc1fn-35" value="Отчёты" style="text;html=1;strokeColor=none;fillColor=none;align=right;verticalAlign=middle;whiteSpace=wrap;rounded=0;" vertex="1" parent="1">
          <mxGeometry x="830" y="300" width="160" height="40" as="geometry" />
        </mxCell>
        <mxCell id="dG1Q1rtih5Ow7F8Cc1fn-36" value="" style="endArrow=none;html=1;rounded=0;strokeWidth=2;strokeColor=#666666;" edge="1" parent="1">
          <mxGeometry width="50" height="50" relative="1" as="geometry">
            <mxPoint x="1030" y="319.63" as="sourcePoint" />
            <mxPoint x="1000" y="319.63" as="targetPoint" />
          </mxGeometry>
        </mxCell>
        <mxCell id="dG1Q1rtih5Ow7F8Cc1fn-37" value="" style="endArrow=none;html=1;rounded=0;entryX=0.5;entryY=1;entryDx=0;entryDy=0;strokeWidth=2;strokeColor=#666666;" edge="1" parent="1">
          <mxGeometry width="50" height="50" relative="1" as="geometry">
            <mxPoint x="1310" y="300" as="sourcePoint" />
            <mxPoint x="1310" y="230" as="targetPoint" />
          </mxGeometry>
        </mxCell>
        <mxCell id="dG1Q1rtih5Ow7F8Cc1fn-38" value="Управление объявлениями" style="text;html=1;strokeColor=none;fillColor=none;align=right;verticalAlign=middle;whiteSpace=wrap;rounded=0;" vertex="1" parent="1">
          <mxGeometry x="1110" y="250" width="160" height="40" as="geometry" />
        </mxCell>
        <mxCell id="dG1Q1rtih5Ow7F8Cc1fn-39" value="" style="endArrow=none;html=1;rounded=0;strokeWidth=2;strokeColor=#666666;" edge="1" parent="1">
          <mxGeometry width="50" height="50" relative="1" as="geometry">
            <mxPoint x="1310" y="270" as="sourcePoint" />
            <mxPoint x="1280" y="270" as="targetPoint" />
          </mxGeometry>
        </mxCell>
        <mxCell id="dG1Q1rtih5Ow7F8Cc1fn-40" value="" style="endArrow=none;html=1;rounded=0;strokeWidth=2;strokeColor=#666666;" edge="1" parent="1">
          <mxGeometry width="50" height="50" relative="1" as="geometry">
            <mxPoint x="1590" y="400" as="sourcePoint" />
            <mxPoint x="1590" y="230" as="targetPoint" />
          </mxGeometry>
        </mxCell>
        <mxCell id="dG1Q1rtih5Ow7F8Cc1fn-41" value="Учёт доходов и расходов" style="text;html=1;strokeColor=none;fillColor=none;align=right;verticalAlign=middle;whiteSpace=wrap;rounded=0;" vertex="1" parent="1">
          <mxGeometry x="1390" y="250" width="160" height="40" as="geometry" />
        </mxCell>
        <mxCell id="dG1Q1rtih5Ow7F8Cc1fn-42" value="" style="endArrow=none;html=1;rounded=0;strokeWidth=2;strokeColor=#666666;" edge="1" parent="1">
          <mxGeometry width="50" height="50" relative="1" as="geometry">
            <mxPoint x="1590" y="270" as="sourcePoint" />
            <mxPoint x="1560" y="270" as="targetPoint" />
          </mxGeometry>
        </mxCell>
        <mxCell id="dG1Q1rtih5Ow7F8Cc1fn-43" value="&lt;p style=&quot;margin-top:6.0pt;margin-right:0cm;margin-bottom:&lt;br/&gt;3.0pt;margin-left:0cm;text-indent:21.25pt;mso-list:l0 level1 lfo1;tab-stops:&lt;br/&gt;list 35.45pt&quot; class=&quot;MsoListParagraph&quot;&gt;Отчёты&lt;/p&gt;" style="text;html=1;strokeColor=none;fillColor=none;align=right;verticalAlign=middle;whiteSpace=wrap;rounded=0;" vertex="1" parent="1">
          <mxGeometry x="1390" y="300" width="160" height="40" as="geometry" />
        </mxCell>
        <mxCell id="dG1Q1rtih5Ow7F8Cc1fn-44" value="" style="endArrow=none;html=1;rounded=0;strokeWidth=2;strokeColor=#666666;" edge="1" parent="1">
          <mxGeometry width="50" height="50" relative="1" as="geometry">
            <mxPoint x="1590" y="319.63" as="sourcePoint" />
            <mxPoint x="1560" y="319.63" as="targetPoint" />
          </mxGeometry>
        </mxCell>
        <mxCell id="dG1Q1rtih5Ow7F8Cc1fn-45" value="Управление&lt;br/&gt;платежами клиентов" style="text;html=1;strokeColor=none;fillColor=none;align=right;verticalAlign=middle;whiteSpace=wrap;rounded=0;" vertex="1" parent="1">
          <mxGeometry x="1390" y="350" width="160" height="40" as="geometry" />
        </mxCell>
        <mxCell id="dG1Q1rtih5Ow7F8Cc1fn-46" value="" style="endArrow=none;html=1;rounded=0;strokeWidth=2;strokeColor=#666666;" edge="1" parent="1">
          <mxGeometry width="50" height="50" relative="1" as="geometry">
            <mxPoint x="1590" y="369.63" as="sourcePoint" />
            <mxPoint x="1560" y="369.63" as="targetPoint" />
          </mxGeometry>
        </mxCell>
        <mxCell id="dG1Q1rtih5Ow7F8Cc1fn-83" value="Административная часть" style="shape=umlFrame;whiteSpace=wrap;html=1;pointerEvents=0;width=240;height=30;strokeWidth=2;strokeColor=#004C99;fontSize=16;fontStyle=1;movable=1;resizable=1;rotatable=1;deletable=1;editable=1;locked=0;connectable=1;fillColor=#FFFFFF;" vertex="1" parent="1">
          <mxGeometry x="240" y="120" width="1500" height="480" as="geometry" />
        </mxCell>
        <mxCell id="dG1Q1rtih5Ow7F8Cc1fn-85" value="Подсистема&lt;br style=&quot;font-size: 16px;&quot;&gt;управления клиентами" style="rounded=0;whiteSpace=wrap;html=1;fillColor=#f5f5f5;fontColor=#000000;strokeColor=#666666;strokeWidth=2;fontSize=16;fontStyle=1" vertex="1" parent="1">
          <mxGeometry x="350" y="690" width="240" height="60" as="geometry" />
        </mxCell>
        <mxCell id="dG1Q1rtih5Ow7F8Cc1fn-86" value="Подсистема&lt;br style=&quot;font-size: 16px;&quot;&gt;учёта оборудования" style="rounded=0;whiteSpace=wrap;html=1;fillColor=#f5f5f5;fontColor=#000000;strokeColor=#666666;strokeWidth=2;fontSize=16;fontStyle=1" vertex="1" parent="1">
          <mxGeometry x="630" y="690" width="240" height="60" as="geometry" />
        </mxCell>
        <mxCell id="dG1Q1rtih5Ow7F8Cc1fn-89" value="Подсистема&lt;br style=&quot;font-size: 16px;&quot;&gt;управления финансами" style="rounded=0;whiteSpace=wrap;html=1;fillColor=#f5f5f5;fontColor=#000000;strokeColor=#666666;strokeWidth=2;fontSize=16;fontStyle=1" vertex="1" parent="1">
          <mxGeometry x="920" y="690" width="240" height="60" as="geometry" />
        </mxCell>
        <mxCell id="dG1Q1rtih5Ow7F8Cc1fn-90" value="" style="endArrow=none;html=1;rounded=0;entryX=0.5;entryY=1;entryDx=0;entryDy=0;strokeWidth=2;strokeColor=#666666;" edge="1" parent="1" target="dG1Q1rtih5Ow7F8Cc1fn-85">
          <mxGeometry width="50" height="50" relative="1" as="geometry">
            <mxPoint x="470" y="1000" as="sourcePoint" />
            <mxPoint x="840" y="790" as="targetPoint" />
          </mxGeometry>
        </mxCell>
        <mxCell id="dG1Q1rtih5Ow7F8Cc1fn-91" value="Управление&lt;br&gt;клиентской базой" style="text;html=1;strokeColor=none;fillColor=none;align=right;verticalAlign=middle;whiteSpace=wrap;rounded=0;" vertex="1" parent="1">
          <mxGeometry x="270" y="770" width="160" height="40" as="geometry" />
        </mxCell>
        <mxCell id="dG1Q1rtih5Ow7F8Cc1fn-92" value="" style="endArrow=none;html=1;rounded=0;strokeWidth=2;strokeColor=#666666;" edge="1" parent="1">
          <mxGeometry width="50" height="50" relative="1" as="geometry">
            <mxPoint x="470" y="790" as="sourcePoint" />
            <mxPoint x="440" y="790" as="targetPoint" />
          </mxGeometry>
        </mxCell>
        <mxCell id="dG1Q1rtih5Ow7F8Cc1fn-93" value="Мониторинг&lt;br/&gt;посещаемости клиентов" style="text;html=1;strokeColor=none;fillColor=none;align=right;verticalAlign=middle;whiteSpace=wrap;rounded=0;" vertex="1" parent="1">
          <mxGeometry x="270" y="820" width="160" height="40" as="geometry" />
        </mxCell>
        <mxCell id="dG1Q1rtih5Ow7F8Cc1fn-94" value="" style="endArrow=none;html=1;rounded=0;strokeWidth=2;strokeColor=#666666;" edge="1" parent="1">
          <mxGeometry width="50" height="50" relative="1" as="geometry">
            <mxPoint x="470" y="839.63" as="sourcePoint" />
            <mxPoint x="440" y="839.63" as="targetPoint" />
          </mxGeometry>
        </mxCell>
        <mxCell id="dG1Q1rtih5Ow7F8Cc1fn-96" value="" style="endArrow=none;html=1;rounded=0;strokeWidth=2;strokeColor=#666666;" edge="1" parent="1">
          <mxGeometry width="50" height="50" relative="1" as="geometry">
            <mxPoint x="470" y="889.63" as="sourcePoint" />
            <mxPoint x="440" y="889.63" as="targetPoint" />
          </mxGeometry>
        </mxCell>
        <mxCell id="dG1Q1rtih5Ow7F8Cc1fn-97" value="Просмотр статуса (абонемента) клиентов" style="text;html=1;strokeColor=none;fillColor=none;align=right;verticalAlign=middle;whiteSpace=wrap;rounded=0;" vertex="1" parent="1">
          <mxGeometry x="270" y="870" width="160" height="40" as="geometry" />
        </mxCell>
        <mxCell id="dG1Q1rtih5Ow7F8Cc1fn-99" value="Отслеживание&lt;br&gt;списка задач клиентов&lt;br&gt;на «Панели управления» для понимания&lt;br&gt;желаний и целей клиентов" style="text;html=1;strokeColor=none;fillColor=none;align=right;verticalAlign=middle;whiteSpace=wrap;rounded=0;" vertex="1" parent="1">
          <mxGeometry x="270" y="920" width="160" height="80" as="geometry" />
        </mxCell>
        <mxCell id="dG1Q1rtih5Ow7F8Cc1fn-100" value="" style="endArrow=none;html=1;rounded=0;strokeWidth=2;strokeColor=#666666;" edge="1" parent="1">
          <mxGeometry width="50" height="50" relative="1" as="geometry">
            <mxPoint x="470" y="959.63" as="sourcePoint" />
            <mxPoint x="440" y="959.63" as="targetPoint" />
          </mxGeometry>
        </mxCell>
        <mxCell id="dG1Q1rtih5Ow7F8Cc1fn-103" value="" style="endArrow=none;html=1;rounded=0;entryX=0.5;entryY=1;entryDx=0;entryDy=0;strokeWidth=2;strokeColor=#666666;" edge="1" parent="1" target="dG1Q1rtih5Ow7F8Cc1fn-86">
          <mxGeometry width="50" height="50" relative="1" as="geometry">
            <mxPoint x="750" y="820" as="sourcePoint" />
            <mxPoint x="480" y="760" as="targetPoint" />
          </mxGeometry>
        </mxCell>
        <mxCell id="dG1Q1rtih5Ow7F8Cc1fn-104" value="Управление&lt;br/&gt;базой спортинвентаря" style="text;html=1;strokeColor=none;fillColor=none;align=right;verticalAlign=middle;whiteSpace=wrap;rounded=0;" vertex="1" parent="1">
          <mxGeometry x="550" y="770" width="160" height="40" as="geometry" />
        </mxCell>
        <mxCell id="dG1Q1rtih5Ow7F8Cc1fn-105" value="" style="endArrow=none;html=1;rounded=0;strokeWidth=2;strokeColor=#666666;" edge="1" parent="1">
          <mxGeometry width="50" height="50" relative="1" as="geometry">
            <mxPoint x="750" y="790" as="sourcePoint" />
            <mxPoint x="720" y="790" as="targetPoint" />
          </mxGeometry>
        </mxCell>
        <mxCell id="dG1Q1rtih5Ow7F8Cc1fn-114" value="" style="endArrow=none;html=1;rounded=0;strokeWidth=2;strokeColor=#666666;" edge="1" parent="1">
          <mxGeometry width="50" height="50" relative="1" as="geometry">
            <mxPoint x="1040" y="870" as="sourcePoint" />
            <mxPoint x="1040" y="750" as="targetPoint" />
          </mxGeometry>
        </mxCell>
        <mxCell id="dG1Q1rtih5Ow7F8Cc1fn-115" value="Учёт доходов и расходов" style="text;html=1;strokeColor=none;fillColor=none;align=right;verticalAlign=middle;whiteSpace=wrap;rounded=0;" vertex="1" parent="1">
          <mxGeometry x="840" y="770" width="160" height="40" as="geometry" />
        </mxCell>
        <mxCell id="dG1Q1rtih5Ow7F8Cc1fn-116" value="" style="endArrow=none;html=1;rounded=0;strokeWidth=2;strokeColor=#666666;" edge="1" parent="1">
          <mxGeometry width="50" height="50" relative="1" as="geometry">
            <mxPoint x="1040" y="790" as="sourcePoint" />
            <mxPoint x="1010" y="790" as="targetPoint" />
          </mxGeometry>
        </mxCell>
        <mxCell id="dG1Q1rtih5Ow7F8Cc1fn-118" value="" style="endArrow=none;html=1;rounded=0;strokeWidth=2;strokeColor=#666666;" edge="1" parent="1">
          <mxGeometry width="50" height="50" relative="1" as="geometry">
            <mxPoint x="1040" y="839.63" as="sourcePoint" />
            <mxPoint x="1010" y="839.63" as="targetPoint" />
          </mxGeometry>
        </mxCell>
        <mxCell id="dG1Q1rtih5Ow7F8Cc1fn-119" value="Управление&lt;br/&gt;платежами клиентов" style="text;html=1;strokeColor=none;fillColor=none;align=right;verticalAlign=middle;whiteSpace=wrap;rounded=0;" vertex="1" parent="1">
          <mxGeometry x="840" y="820" width="160" height="40" as="geometry" />
        </mxCell>
        <mxCell id="dG1Q1rtih5Ow7F8Cc1fn-121" value="Часть для персонала" style="shape=umlFrame;whiteSpace=wrap;html=1;pointerEvents=0;width=240;height=30;strokeWidth=2;strokeColor=#FF8000;fontSize=16;fontStyle=1;movable=1;resizable=1;rotatable=1;deletable=1;editable=1;locked=0;connectable=1;" vertex="1" parent="1">
          <mxGeometry x="240" y="640" width="1230" height="380" as="geometry" />
        </mxCell>
        <mxCell id="dG1Q1rtih5Ow7F8Cc1fn-122" value="Подсистема информирования и уведомлений" style="rounded=0;whiteSpace=wrap;html=1;fillColor=#f5f5f5;fontColor=#000000;strokeColor=#666666;strokeWidth=2;fontSize=16;fontStyle=1" vertex="1" parent="1">
          <mxGeometry x="1200" y="690" width="240" height="60" as="geometry" />
        </mxCell>
        <mxCell id="dG1Q1rtih5Ow7F8Cc1fn-123" value="" style="endArrow=none;html=1;rounded=0;strokeWidth=2;strokeColor=#666666;" edge="1" parent="1">
          <mxGeometry width="50" height="50" relative="1" as="geometry">
            <mxPoint x="1320" y="820" as="sourcePoint" />
            <mxPoint x="1320" y="750" as="targetPoint" />
          </mxGeometry>
        </mxCell>
        <mxCell id="dG1Q1rtih5Ow7F8Cc1fn-124" value="Просмотр объявлений на «Панели управления»" style="text;html=1;strokeColor=none;fillColor=none;align=right;verticalAlign=middle;whiteSpace=wrap;rounded=0;" vertex="1" parent="1">
          <mxGeometry x="1120" y="770" width="160" height="40" as="geometry" />
        </mxCell>
        <mxCell id="dG1Q1rtih5Ow7F8Cc1fn-125" value="" style="endArrow=none;html=1;rounded=0;strokeWidth=2;strokeColor=#666666;" edge="1" parent="1">
          <mxGeometry width="50" height="50" relative="1" as="geometry">
            <mxPoint x="1320" y="790" as="sourcePoint" />
            <mxPoint x="1290" y="790" as="targetPoint" />
          </mxGeometry>
        </mxCell>
        <mxCell id="dG1Q1rtih5Ow7F8Cc1fn-151" value="Подсистема&lt;br style=&quot;font-size: 16px;&quot;&gt;управления списком дел" style="rounded=0;whiteSpace=wrap;html=1;fillColor=#f5f5f5;fontColor=#000000;strokeColor=#666666;strokeWidth=2;fontSize=16;fontStyle=1" vertex="1" parent="1">
          <mxGeometry x="350" y="1130" width="240" height="60" as="geometry" />
        </mxCell>
        <mxCell id="dG1Q1rtih5Ow7F8Cc1fn-154" value="" style="endArrow=none;html=1;rounded=0;entryX=0.5;entryY=1;entryDx=0;entryDy=0;strokeWidth=2;strokeColor=#666666;" edge="1" parent="1" target="dG1Q1rtih5Ow7F8Cc1fn-151">
          <mxGeometry width="50" height="50" relative="1" as="geometry">
            <mxPoint x="470" y="1360" as="sourcePoint" />
            <mxPoint x="840" y="1230" as="targetPoint" />
          </mxGeometry>
        </mxCell>
        <mxCell id="dG1Q1rtih5Ow7F8Cc1fn-155" value="Создание списка дел" style="text;html=1;strokeColor=none;fillColor=none;align=right;verticalAlign=middle;whiteSpace=wrap;rounded=0;" vertex="1" parent="1">
          <mxGeometry x="270" y="1210" width="160" height="40" as="geometry" />
        </mxCell>
        <mxCell id="dG1Q1rtih5Ow7F8Cc1fn-156" value="" style="endArrow=none;html=1;rounded=0;strokeWidth=2;strokeColor=#666666;" edge="1" parent="1">
          <mxGeometry width="50" height="50" relative="1" as="geometry">
            <mxPoint x="470" y="1230" as="sourcePoint" />
            <mxPoint x="440" y="1230" as="targetPoint" />
          </mxGeometry>
        </mxCell>
        <mxCell id="dG1Q1rtih5Ow7F8Cc1fn-157" value="Управление списком дел&amp;nbsp;" style="text;html=1;strokeColor=none;fillColor=none;align=right;verticalAlign=middle;whiteSpace=wrap;rounded=0;" vertex="1" parent="1">
          <mxGeometry x="270" y="1260" width="160" height="40" as="geometry" />
        </mxCell>
        <mxCell id="dG1Q1rtih5Ow7F8Cc1fn-158" value="" style="endArrow=none;html=1;rounded=0;strokeWidth=2;strokeColor=#666666;" edge="1" parent="1">
          <mxGeometry width="50" height="50" relative="1" as="geometry">
            <mxPoint x="470" y="1279.63" as="sourcePoint" />
            <mxPoint x="440" y="1279.63" as="targetPoint" />
          </mxGeometry>
        </mxCell>
        <mxCell id="dG1Q1rtih5Ow7F8Cc1fn-159" value="" style="endArrow=none;html=1;rounded=0;strokeWidth=2;strokeColor=#666666;" edge="1" parent="1">
          <mxGeometry width="50" height="50" relative="1" as="geometry">
            <mxPoint x="470" y="1329.63" as="sourcePoint" />
            <mxPoint x="440" y="1329.63" as="targetPoint" />
          </mxGeometry>
        </mxCell>
        <mxCell id="dG1Q1rtih5Ow7F8Cc1fn-160" value="Просмотр задач&amp;nbsp;" style="text;html=1;strokeColor=none;fillColor=none;align=right;verticalAlign=middle;whiteSpace=wrap;rounded=0;" vertex="1" parent="1">
          <mxGeometry x="270" y="1310" width="160" height="40" as="geometry" />
        </mxCell>
        <mxCell id="dG1Q1rtih5Ow7F8Cc1fn-171" value="Клиентская часть" style="shape=umlFrame;whiteSpace=wrap;html=1;pointerEvents=0;width=240;height=30;strokeWidth=2;strokeColor=#00994D;fontSize=16;fontStyle=1;movable=1;resizable=1;rotatable=1;deletable=1;editable=1;locked=0;connectable=1;" vertex="1" parent="1">
          <mxGeometry x="240" y="1080" width="950" height="300" as="geometry" />
        </mxCell>
        <mxCell id="dG1Q1rtih5Ow7F8Cc1fn-172" value="Подсистема информирования и уведомлений" style="rounded=0;whiteSpace=wrap;html=1;fillColor=#f5f5f5;fontColor=#000000;strokeColor=#666666;strokeWidth=2;fontSize=16;fontStyle=1" vertex="1" parent="1">
          <mxGeometry x="630" y="1130" width="240" height="60" as="geometry" />
        </mxCell>
        <mxCell id="dG1Q1rtih5Ow7F8Cc1fn-173" value="" style="endArrow=none;html=1;rounded=0;strokeWidth=2;strokeColor=#666666;" edge="1" parent="1">
          <mxGeometry width="50" height="50" relative="1" as="geometry">
            <mxPoint x="750" y="1320" as="sourcePoint" />
            <mxPoint x="750" y="1190" as="targetPoint" />
          </mxGeometry>
        </mxCell>
        <mxCell id="dG1Q1rtih5Ow7F8Cc1fn-174" value="Просмотр объявлений&lt;br&gt;в специальном разделе и на «Панели управления»" style="text;html=1;strokeColor=none;fillColor=none;align=right;verticalAlign=middle;whiteSpace=wrap;rounded=0;" vertex="1" parent="1">
          <mxGeometry x="550" y="1260" width="160" height="60" as="geometry" />
        </mxCell>
        <mxCell id="dG1Q1rtih5Ow7F8Cc1fn-175" value="" style="endArrow=none;html=1;rounded=0;strokeWidth=2;strokeColor=#666666;" edge="1" parent="1">
          <mxGeometry width="50" height="50" relative="1" as="geometry">
            <mxPoint x="750" y="1289.58" as="sourcePoint" />
            <mxPoint x="720" y="1289.58" as="targetPoint" />
          </mxGeometry>
        </mxCell>
        <mxCell id="dG1Q1rtih5Ow7F8Cc1fn-176" value="Просмотр напоминаний" style="text;html=1;strokeColor=none;fillColor=none;align=right;verticalAlign=middle;whiteSpace=wrap;rounded=0;" vertex="1" parent="1">
          <mxGeometry x="550" y="1210" width="160" height="40" as="geometry" />
        </mxCell>
        <mxCell id="dG1Q1rtih5Ow7F8Cc1fn-177" value="" style="endArrow=none;html=1;rounded=0;strokeWidth=2;strokeColor=#666666;" edge="1" parent="1">
          <mxGeometry width="50" height="50" relative="1" as="geometry">
            <mxPoint x="750" y="1230" as="sourcePoint" />
            <mxPoint x="720" y="1230" as="targetPoint" />
          </mxGeometry>
        </mxCell>
        <mxCell id="dG1Q1rtih5Ow7F8Cc1fn-178" value="Подсистема отчётов" style="rounded=0;whiteSpace=wrap;html=1;fillColor=#f5f5f5;fontColor=#000000;strokeColor=#666666;strokeWidth=2;fontSize=16;fontStyle=1" vertex="1" parent="1">
          <mxGeometry x="920" y="1130" width="240" height="60" as="geometry" />
        </mxCell>
        <mxCell id="dG1Q1rtih5Ow7F8Cc1fn-179" value="" style="endArrow=none;html=1;rounded=0;strokeWidth=2;strokeColor=#666666;" edge="1" parent="1">
          <mxGeometry width="50" height="50" relative="1" as="geometry">
            <mxPoint x="1040" y="1260" as="sourcePoint" />
            <mxPoint x="1040" y="1190" as="targetPoint" />
          </mxGeometry>
        </mxCell>
        <mxCell id="dG1Q1rtih5Ow7F8Cc1fn-180" value="Отчёты" style="text;html=1;strokeColor=none;fillColor=none;align=right;verticalAlign=middle;whiteSpace=wrap;rounded=0;" vertex="1" parent="1">
          <mxGeometry x="840" y="1210" width="160" height="40" as="geometry" />
        </mxCell>
        <mxCell id="dG1Q1rtih5Ow7F8Cc1fn-181" value="" style="endArrow=none;html=1;rounded=0;strokeWidth=2;strokeColor=#666666;" edge="1" parent="1">
          <mxGeometry width="50" height="50" relative="1" as="geometry">
            <mxPoint x="1040" y="1230" as="sourcePoint" />
            <mxPoint x="1010" y="1230" as="targetPoint" />
          </mxGeometry>
        </mxCell>
        <mxCell id="dG1Q1rtih5Ow7F8Cc1fn-183" value="" style="endArrow=none;html=1;rounded=0;entryX=0.5;entryY=1;entryDx=0;entryDy=0;strokeWidth=2;strokeColor=#666666;exitX=0;exitY=0.5;exitDx=0;exitDy=0;" edge="1" parent="1" source="dG1Q1rtih5Ow7F8Cc1fn-1" target="dG1Q1rtih5Ow7F8Cc1fn-5">
          <mxGeometry width="50" height="50" relative="1" as="geometry">
            <mxPoint x="600" y="600" as="sourcePoint" />
            <mxPoint x="600" y="240" as="targetPoint" />
            <Array as="points">
              <mxPoint x="160" y="200" />
            </Array>
          </mxGeometry>
        </mxCell>
        <mxCell id="dG1Q1rtih5Ow7F8Cc1fn-185" value="" style="endArrow=none;html=1;rounded=0;entryX=0.5;entryY=1;entryDx=0;entryDy=0;strokeWidth=2;strokeColor=#666666;exitX=0;exitY=0.5;exitDx=0;exitDy=0;" edge="1" parent="1" source="dG1Q1rtih5Ow7F8Cc1fn-85" target="dG1Q1rtih5Ow7F8Cc1fn-5">
          <mxGeometry width="50" height="50" relative="1" as="geometry">
            <mxPoint x="480" y="210" as="sourcePoint" />
            <mxPoint x="170" y="80" as="targetPoint" />
            <Array as="points">
              <mxPoint x="160" y="720" />
            </Array>
          </mxGeometry>
        </mxCell>
        <mxCell id="dG1Q1rtih5Ow7F8Cc1fn-186" value="" style="endArrow=none;html=1;rounded=0;entryX=0.5;entryY=1;entryDx=0;entryDy=0;strokeWidth=2;strokeColor=#666666;exitX=0;exitY=0.5;exitDx=0;exitDy=0;" edge="1" parent="1" source="dG1Q1rtih5Ow7F8Cc1fn-151" target="dG1Q1rtih5Ow7F8Cc1fn-5">
          <mxGeometry width="50" height="50" relative="1" as="geometry">
            <mxPoint x="480" y="730" as="sourcePoint" />
            <mxPoint x="170" y="80" as="targetPoint" />
            <Array as="points">
              <mxPoint x="160" y="1160" />
            </Array>
          </mxGeometry>
        </mxCell>
        <mxCell id="dG1Q1rtih5Ow7F8Cc1fn-187" value="" style="endArrow=none;html=1;rounded=0;strokeWidth=2;strokeColor=#666666;entryX=1;entryY=0.5;entryDx=0;entryDy=0;exitX=0;exitY=0.5;exitDx=0;exitDy=0;" edge="1" parent="1" source="dG1Q1rtih5Ow7F8Cc1fn-2" target="dG1Q1rtih5Ow7F8Cc1fn-1">
          <mxGeometry width="50" height="50" relative="1" as="geometry">
            <mxPoint x="480" y="280" as="sourcePoint" />
            <mxPoint x="450" y="280" as="targetPoint" />
          </mxGeometry>
        </mxCell>
        <mxCell id="dG1Q1rtih5Ow7F8Cc1fn-188" value="" style="endArrow=none;html=1;rounded=0;strokeWidth=2;strokeColor=#666666;entryX=1;entryY=0.5;entryDx=0;entryDy=0;exitX=0;exitY=0.5;exitDx=0;exitDy=0;" edge="1" parent="1" source="dG1Q1rtih5Ow7F8Cc1fn-3" target="dG1Q1rtih5Ow7F8Cc1fn-2">
          <mxGeometry width="50" height="50" relative="1" as="geometry">
            <mxPoint x="640" y="210" as="sourcePoint" />
            <mxPoint x="600" y="210" as="targetPoint" />
          </mxGeometry>
        </mxCell>
        <mxCell id="dG1Q1rtih5Ow7F8Cc1fn-189" value="" style="endArrow=none;html=1;rounded=0;strokeWidth=2;strokeColor=#666666;entryX=1;entryY=0.5;entryDx=0;entryDy=0;exitX=0;exitY=0.5;exitDx=0;exitDy=0;" edge="1" parent="1" source="dG1Q1rtih5Ow7F8Cc1fn-4" target="dG1Q1rtih5Ow7F8Cc1fn-3">
          <mxGeometry width="50" height="50" relative="1" as="geometry">
            <mxPoint x="920" y="210" as="sourcePoint" />
            <mxPoint x="880" y="210" as="targetPoint" />
          </mxGeometry>
        </mxCell>
        <mxCell id="dG1Q1rtih5Ow7F8Cc1fn-190" value="" style="endArrow=none;html=1;rounded=0;strokeWidth=2;strokeColor=#666666;entryX=1;entryY=0.5;entryDx=0;entryDy=0;exitX=0;exitY=0.5;exitDx=0;exitDy=0;" edge="1" parent="1" source="dG1Q1rtih5Ow7F8Cc1fn-7" target="dG1Q1rtih5Ow7F8Cc1fn-4">
          <mxGeometry width="50" height="50" relative="1" as="geometry">
            <mxPoint x="1200" y="210" as="sourcePoint" />
            <mxPoint x="1160" y="210" as="targetPoint" />
          </mxGeometry>
        </mxCell>
        <mxCell id="dG1Q1rtih5Ow7F8Cc1fn-191" value="" style="endArrow=none;html=1;rounded=0;strokeWidth=2;strokeColor=#666666;entryX=1;entryY=0.5;entryDx=0;entryDy=0;exitX=0;exitY=0.5;exitDx=0;exitDy=0;" edge="1" parent="1" source="dG1Q1rtih5Ow7F8Cc1fn-86" target="dG1Q1rtih5Ow7F8Cc1fn-85">
          <mxGeometry width="50" height="50" relative="1" as="geometry">
            <mxPoint x="640" y="670" as="sourcePoint" />
            <mxPoint x="600" y="670" as="targetPoint" />
          </mxGeometry>
        </mxCell>
        <mxCell id="dG1Q1rtih5Ow7F8Cc1fn-192" value="" style="endArrow=none;html=1;rounded=0;strokeWidth=2;strokeColor=#666666;entryX=1;entryY=0.5;entryDx=0;entryDy=0;exitX=0;exitY=0.5;exitDx=0;exitDy=0;" edge="1" parent="1" source="dG1Q1rtih5Ow7F8Cc1fn-89" target="dG1Q1rtih5Ow7F8Cc1fn-86">
          <mxGeometry width="50" height="50" relative="1" as="geometry">
            <mxPoint x="640" y="730" as="sourcePoint" />
            <mxPoint x="600" y="730" as="targetPoint" />
          </mxGeometry>
        </mxCell>
        <mxCell id="dG1Q1rtih5Ow7F8Cc1fn-193" value="" style="endArrow=none;html=1;rounded=0;strokeWidth=2;strokeColor=#666666;entryX=1;entryY=0.5;entryDx=0;entryDy=0;exitX=0;exitY=0.5;exitDx=0;exitDy=0;" edge="1" parent="1" source="dG1Q1rtih5Ow7F8Cc1fn-122" target="dG1Q1rtih5Ow7F8Cc1fn-89">
          <mxGeometry width="50" height="50" relative="1" as="geometry">
            <mxPoint x="930" y="730" as="sourcePoint" />
            <mxPoint x="880" y="730" as="targetPoint" />
          </mxGeometry>
        </mxCell>
        <mxCell id="dG1Q1rtih5Ow7F8Cc1fn-195" value="" style="endArrow=none;html=1;rounded=0;strokeWidth=2;strokeColor=#666666;entryX=1;entryY=0.5;entryDx=0;entryDy=0;exitX=0;exitY=0.5;exitDx=0;exitDy=0;" edge="1" parent="1" source="dG1Q1rtih5Ow7F8Cc1fn-172" target="dG1Q1rtih5Ow7F8Cc1fn-151">
          <mxGeometry width="50" height="50" relative="1" as="geometry">
            <mxPoint x="640" y="730" as="sourcePoint" />
            <mxPoint x="600" y="730" as="targetPoint" />
          </mxGeometry>
        </mxCell>
        <mxCell id="dG1Q1rtih5Ow7F8Cc1fn-196" value="" style="endArrow=none;html=1;rounded=0;strokeWidth=2;strokeColor=#666666;entryX=1;entryY=0.5;entryDx=0;entryDy=0;exitX=0;exitY=0.5;exitDx=0;exitDy=0;" edge="1" parent="1" source="dG1Q1rtih5Ow7F8Cc1fn-178" target="dG1Q1rtih5Ow7F8Cc1fn-172">
          <mxGeometry width="50" height="50" relative="1" as="geometry">
            <mxPoint x="640" y="1170" as="sourcePoint" />
            <mxPoint x="600" y="1170" as="targetPoint" />
          </mxGeometry>
        </mxCell>
      </root>
    </mxGraphModel>
  </diagram>
</mxfile>
